<?xml version="1.0" encoding="UTF-8"?>
<svg width="18" height="18" viewBox="0 0 18 18" xmlns="http://www.w3.org/2000/svg">
    <path d="M9 0C4.03 0 0 4.03 0 9c0 3.97 2.58 7.35 6.15 8.55.45.08.62-.2.62-.43v-1.5c-2.5.54-3.03-1.2-3.03-1.2-.4-1.03-1-.13-1-.13-.83-.56.06-.55.06-.55.92.06 1.4.94 1.4.94.82 1.4 2.14 1 2.66.76.08-.6.32-1 .58-1.23-2.02-.23-4.14-1-4.14-4.47 0-1 .35-1.8.94-2.44-.1-.23-.4-1.16.1-2.42 0 0 .76-.24 2.5.93.72-.2 1.5-.3 2.27-.3.77 0 1.54.1 2.27.3 1.73-1.17 2.5-.93 2.5-.93.5 1.26.18 2.2.09 2.42.58.64.94 1.45.94 2.44 0 3.48-2.12 4.24-4.14 4.46.33.28.62.83.62 1.68v2.5c0 .24.16.52.62.43C15.42 16.35 18 12.97 18 9c0-4.97-4.03-9-9-9z" fill="#24292F"/>
</svg> 